<svg width="12" height="14" viewBox="0 0 12 14" fill="none" xmlns="http://www.w3.org/2000/svg">
<path d="M4 6.33334H2.66667V7.66668H4V6.33334ZM6.66667 6.33334H5.33333V7.66668H6.66667V6.33334ZM9.33333 6.33334H8V7.66668H9.33333V6.33334ZM10.6667 1.66668H10V0.333344H8.66667V1.66668H3.33333V0.333344H2V1.66668H1.33333C0.593333 1.66668 0.00666666 2.26668 0.00666666 3.00001L0 12.3333C0 13.0667 0.593333 13.6667 1.33333 13.6667H10.6667C11.4 13.6667 12 13.0667 12 12.3333V3.00001C12 2.26668 11.4 1.66668 10.6667 1.66668ZM10.6667 12.3333H1.33333V5.00001H10.6667V12.3333Z" fill="#4252E6"/>
</svg>
