<svg width="36" height="32" viewBox="0 0 36 32" fill="none" xmlns="http://www.w3.org/2000/svg">
<path d="M31.84 2.02C31.44 0.840001 30.32 0 29 0H7C5.68 0 4.58 0.840001 4.16 2.02L0 14V30C0 31.1 0.9 32 2 32H4C5.1 32 6 31.1 6 30V28H30V30C30 31.1 30.9 32 32 32H34C35.1 32 36 31.1 36 30V14L31.84 2.02ZM7 22C5.34 22 4 20.66 4 19C4 17.34 5.34 16 7 16C8.66 16 10 17.34 10 19C10 20.66 8.66 22 7 22ZM29 22C27.34 22 26 20.66 26 19C26 17.34 27.34 16 29 16C30.66 16 32 17.34 32 19C32 20.66 30.66 22 29 22ZM4 12L7 3H29L32 12H4Z" fill="#4252E6"/>
</svg>
