<svg width="12" height="15" viewBox="0 0 12 15" fill="none" xmlns="http://www.w3.org/2000/svg">
<path d="M8 0.666656H4V1.99999H8V0.666656ZM5.33333 9.33332H6.66667V5.33332H5.33333V9.33332ZM10.6867 4.92666L11.6333 3.97999C11.3467 3.63999 11.0333 3.31999 10.6933 3.03999L9.74667 3.98666C8.71333 3.15999 7.41333 2.66666 6 2.66666C2.68667 2.66666 0 5.35332 0 8.66666C0 11.98 2.68 14.6667 6 14.6667C9.32 14.6667 12 11.98 12 8.66666C12 7.25332 11.5067 5.95332 10.6867 4.92666ZM6 13.3333C3.42 13.3333 1.33333 11.2467 1.33333 8.66666C1.33333 6.08666 3.42 3.99999 6 3.99999C8.58 3.99999 10.6667 6.08666 10.6667 8.66666C10.6667 11.2467 8.58 13.3333 6 13.3333Z" fill="#4252E6"/>
</svg>
