<svg width="236" height="26" viewBox="0 0 236 26" fill="none" xmlns="http://www.w3.org/2000/svg">
<path d="M4.408 22.024H15.384V25H0.344V22.152L11.096 5.384H0.568V2.408H15.224V5.256L4.408 22.024ZM35.2828 7.368V25H31.6028V21.16C31.1548 22.4613 30.3761 23.4747 29.2668 24.2C28.1574 24.904 26.8668 25.256 25.3948 25.256C23.3468 25.256 21.7041 24.5947 20.4668 23.272C19.2294 21.9493 18.6108 20.0613 18.6108 17.608V7.368H22.2588V17.224C22.2588 18.824 22.6641 20.0613 23.4748 20.936C24.2854 21.7893 25.3948 22.216 26.8028 22.216C28.2534 22.216 29.4161 21.7467 30.2908 20.808C31.1654 19.8693 31.6028 18.504 31.6028 16.712V7.368H35.2828ZM43.3998 10.824C43.9971 9.672 44.8504 8.76533 45.9598 8.104C47.0691 7.42133 48.3491 7.08 49.7998 7.08V11.048H48.7118C47.1118 11.048 45.8211 11.4427 44.8398 12.232C43.8798 13 43.3998 14.28 43.3998 16.072V25H39.7518V7.368H43.3998V10.824ZM52.121 2.248C52.121 1.62933 52.3343 1.11733 52.761 0.711998C53.1877 0.306665 53.753 0.103998 54.457 0.103998C55.161 0.103998 55.7263 0.306665 56.153 0.711998C56.601 1.11733 56.825 1.62933 56.825 2.248C56.825 2.86667 56.601 3.368 56.153 3.752C55.7263 4.136 55.161 4.328 54.457 4.328C53.753 4.328 53.1877 4.136 52.761 3.752C52.3343 3.368 52.121 2.86667 52.121 2.248ZM56.281 7.368V25H52.633V7.368H56.281ZM78.4755 2.184C81.2488 2.184 83.5528 2.888 85.3875 4.296C87.2222 5.704 88.4595 7.61333 89.0995 10.024H85.2275C84.6942 8.65867 83.8408 7.58133 82.6675 6.792C81.5155 5.98133 80.0968 5.576 78.4115 5.576C77.0675 5.576 75.8622 5.90667 74.7955 6.568C73.7502 7.22933 72.9182 8.17867 72.2995 9.416C71.7022 10.632 71.4035 12.0613 71.4035 13.704C71.4035 15.3253 71.7022 16.7547 72.2995 17.992C72.9182 19.208 73.7502 20.1467 74.7955 20.808C75.8622 21.4693 77.0675 21.8 78.4115 21.8C80.0968 21.8 81.5155 21.4053 82.6675 20.616C83.8408 19.8053 84.6942 18.728 85.2275 17.384H89.0995C88.4595 19.7947 87.2222 21.704 85.3875 23.112C83.5528 24.4987 81.2488 25.192 78.4755 25.192C76.3422 25.192 74.4542 24.712 72.8115 23.752C71.1688 22.7707 69.8995 21.416 69.0035 19.688C68.1075 17.9387 67.6595 15.944 67.6595 13.704C67.6595 11.464 68.1075 9.48 69.0035 7.752C69.8995 6.00267 71.1688 4.63733 72.8115 3.656C74.4542 2.67466 76.3422 2.184 78.4755 2.184ZM102.695 7.08C104.743 7.08 106.386 7.74133 107.623 9.064C108.861 10.3867 109.479 12.2747 109.479 14.728V25H105.831V15.112C105.831 13.5333 105.426 12.3173 104.615 11.464C103.805 10.5893 102.695 10.152 101.287 10.152C99.8366 10.152 98.6739 10.6213 97.7992 11.56C96.9246 12.4773 96.4872 13.832 96.4872 15.624V25H92.8392V1.32H96.4872V11.24C96.9566 9.91733 97.7459 8.89333 98.8552 8.168C99.9646 7.44267 101.245 7.08 102.695 7.08ZM120.917 7.144C122.517 7.144 123.883 7.53867 125.013 8.328C126.144 9.11733 126.944 10.1627 127.413 11.464V7.368H131.061V25H127.413V20.904C126.944 22.2053 126.144 23.2507 125.013 24.04C123.883 24.8293 122.517 25.224 120.917 25.224C119.381 25.224 118.005 24.8613 116.789 24.136C115.595 23.4107 114.656 22.3653 113.973 21C113.291 19.6347 112.949 18.024 112.949 16.168C112.949 14.3333 113.291 12.7333 113.973 11.368C114.656 10.0027 115.595 8.95733 116.789 8.232C118.005 7.50667 119.381 7.144 120.917 7.144ZM122.037 10.344C120.416 10.344 119.115 10.8667 118.133 11.912C117.173 12.936 116.693 14.3547 116.693 16.168C116.693 17.9813 117.173 19.4107 118.133 20.456C119.115 21.48 120.416 21.992 122.037 21.992C123.061 21.992 123.979 21.7573 124.789 21.288C125.6 20.7973 126.24 20.1147 126.709 19.24C127.179 18.3653 127.413 17.3413 127.413 16.168C127.413 15.016 127.179 14.0027 126.709 13.128C126.24 12.232 125.6 11.5493 124.789 11.08C123.979 10.5893 123.061 10.344 122.037 10.344ZM151.795 7.368V25H148.115V21.16C147.667 22.4613 146.889 23.4747 145.779 24.2C144.67 24.904 143.379 25.256 141.907 25.256C139.859 25.256 138.217 24.5947 136.979 23.272C135.742 21.9493 135.123 20.0613 135.123 17.608V7.368H138.771V17.224C138.771 18.824 139.177 20.0613 139.987 20.936C140.798 21.7893 141.907 22.216 143.315 22.216C144.766 22.216 145.929 21.7467 146.803 20.808C147.678 19.8693 148.115 18.504 148.115 16.712V7.368H151.795ZM164.488 3.72C163.059 3.656 162.056 3.89067 161.48 4.424C160.904 4.936 160.616 5.82133 160.616 7.08V7.368H164.488V10.504H160.616V25H156.936V10.504H154.536V7.368H156.936V6.792C156.936 4.63733 157.566 3.02667 158.824 1.96C160.083 0.871999 161.971 0.391999 164.488 0.519999V3.72ZM175.745 3.72C174.315 3.656 173.313 3.89067 172.737 4.424C172.161 4.936 171.873 5.82133 171.873 7.08V7.368H175.745V10.504H171.873V25H168.193V10.504H165.793V7.368H168.193V6.792C168.193 4.63733 168.822 3.02667 170.081 1.96C171.339 0.871999 173.227 0.391999 175.745 0.519999V3.72ZM195.161 15.336C195.161 15.9333 195.118 16.456 195.033 16.904H181.465C181.529 18.7173 182.03 20.0613 182.969 20.936C183.907 21.8107 185.07 22.248 186.457 22.248C187.673 22.248 188.697 21.9387 189.529 21.32C190.382 20.7013 190.905 19.88 191.097 18.856H195.001C194.766 20.0933 194.275 21.192 193.529 22.152C192.782 23.112 191.811 23.8693 190.617 24.424C189.422 24.9573 188.089 25.224 186.617 25.224C184.91 25.224 183.395 24.8613 182.073 24.136C180.771 23.4107 179.747 22.3653 179.001 21C178.254 19.6347 177.881 18.024 177.881 16.168C177.881 14.3333 178.254 12.7333 179.001 11.368C179.747 10.0027 180.771 8.95733 182.073 8.232C183.395 7.50667 184.91 7.144 186.617 7.144C188.345 7.144 189.849 7.50667 191.129 8.232C192.43 8.936 193.422 9.91733 194.105 11.176C194.809 12.4133 195.161 13.8 195.161 15.336ZM191.481 15.24C191.523 14.088 191.321 13.128 190.873 12.36C190.446 11.5707 189.849 10.9947 189.081 10.632C188.334 10.248 187.513 10.056 186.617 10.056C185.187 10.056 183.993 10.4933 183.033 11.368C182.073 12.2427 181.55 13.5333 181.465 15.24H191.481ZM215.039 7.368V25H211.359V21.16C210.911 22.4613 210.132 23.4747 209.023 24.2C207.914 24.904 206.623 25.256 205.151 25.256C203.103 25.256 201.46 24.5947 200.223 23.272C198.986 21.9493 198.367 20.0613 198.367 17.608V7.368H202.015V17.224C202.015 18.824 202.42 20.0613 203.231 20.936C204.042 21.7893 205.151 22.216 206.559 22.216C208.01 22.216 209.172 21.7467 210.047 20.808C210.922 19.8693 211.359 18.504 211.359 16.712V7.368H215.039ZM223.156 10.824C223.753 9.672 224.607 8.76533 225.716 8.104C226.825 7.42133 228.105 7.08 229.556 7.08V11.048H228.468C226.868 11.048 225.577 11.4427 224.596 12.232C223.636 13 223.156 14.28 223.156 16.072V25H219.508V7.368H223.156V10.824ZM235.269 20.968V25H231.141V20.968H235.269Z" fill="white"/>
</svg>
