<svg width="40" height="40" viewBox="0 0 40 40" fill="none" xmlns="http://www.w3.org/2000/svg">
<circle cx="20" cy="20" r="20" fill="#4252E6"/>
<path d="M27.5 25.5C26.25 25.5 25.05 25.3 23.93 24.93C23.58 24.82 23.19 24.9 22.91 25.17L20.71 27.37C17.88 25.93 15.56 23.62 14.12 20.78L16.32 18.57C16.6 18.31 16.68 17.92 16.57 17.57C16.2 16.45 16 15.25 16 14C16 13.45 15.55 13 15 13H11.5C10.95 13 10.5 13.45 10.5 14C10.5 23.39 18.11 31 27.5 31C28.05 31 28.5 30.55 28.5 30V26.5C28.5 25.95 28.05 25.5 27.5 25.5ZM26.5 22H28.5C28.5 17.03 24.47 13 19.5 13V15C23.37 15 26.5 18.13 26.5 22ZM22.5 22H24.5C24.5 19.24 22.26 17 19.5 17V19C21.16 19 22.5 20.34 22.5 22Z" fill="white"/>
</svg>
