<svg width="102" height="102" viewBox="0 0 102 102" fill="none" xmlns="http://www.w3.org/2000/svg">
<path d="M40.8332 73.875L71.3332 51L40.8332 28.125V73.875ZM50.9998 0.166656C22.9398 0.166656 0.166504 22.94 0.166504 51C0.166504 79.06 22.9398 101.833 50.9998 101.833C79.0598 101.833 101.833 79.06 101.833 51C101.833 22.94 79.0598 0.166656 50.9998 0.166656ZM50.9998 91.6667C28.5823 91.6667 10.3332 73.4175 10.3332 51C10.3332 28.5825 28.5823 10.3333 50.9998 10.3333C73.4173 10.3333 91.6665 28.5825 91.6665 51C91.6665 73.4175 73.4173 91.6667 50.9998 91.6667Z" fill="white"/>
</svg>
