<svg width="40" height="38" viewBox="0 0 40 38" fill="none" xmlns="http://www.w3.org/2000/svg">
<path d="M6.7 7.27998C4.9 5.99998 4.46 3.51998 5.72 1.69998C6.98 -0.100023 9.48 -0.540023 11.3 0.719977C13.1 1.99998 13.54 4.47998 12.28 6.29998C11 8.09998 8.52 8.53998 6.7 7.27998ZM28 34H13.86C10.9 34 8.38 31.84 7.94 28.92L4 9.99998H0L3.98 29.52C4.74 34.4 8.94 38 13.88 38H28V34ZM28.46 26H18.7L16.64 17.8C19.8 19.58 23.2 20.88 26.94 20.24V15.98C23.68 16.6 20.06 15.44 17.56 13.48L14.28 10.94C13.82 10.58 13.3 10.34 12.76 10.18C12.12 9.99998 11.44 9.93998 10.78 10.06H10.74C8.28 10.5 6.64 12.84 7.06 15.28L9.76 27.12C10.32 29.96 12.78 32 15.66 32H29.36L37 38L40 35L28.46 26Z" fill="#4252E6"/>
</svg>
