<svg width="48" height="48" viewBox="0 0 48 48" fill="none" xmlns="http://www.w3.org/2000/svg">
<path d="M10.7 11.28C8.9 10 8.46 7.52001 9.72 5.70001C10.98 3.90001 13.48 3.46001 15.3 4.72001C17.1 6.00001 17.54 8.48001 16.28 10.3C15 12.1 12.52 12.54 10.7 11.28ZM32 38H17.86C14.9 38 12.38 35.84 11.94 32.92L8 14H4L7.98 33.52C8.74 38.4 12.94 42 17.88 42H32V38ZM32.46 30H22.7L20.64 21.8C23.8 23.58 27.2 24.88 30.94 24.24V19.98C27.68 20.6 24.06 19.44 21.56 17.48L18.28 14.94C17.82 14.58 17.3 14.34 16.76 14.18C16.12 14 15.44 13.94 14.78 14.06H14.74C12.28 14.5 10.64 16.84 11.06 19.28L13.76 31.12C14.32 33.96 16.78 36 19.66 36H33.36L41 42L44 39L32.46 30Z" fill="#4252E6"/>
</svg>
